<svg width="582" height="148" viewBox="0 0 582 148" fill="currentColor" xmlns="http://www.w3.org/2000/svg">
<path d="M132.003 45.6708H163.827V146.87H132.003V45.6708ZM247.174 91.4411L210.162 45.6708H184.097V146.87H216.057V101.249L252.932 146.87H279.134V45.6708H247.174V91.4411ZM299.404 146.87H331.227V45.6708H299.404V146.87ZM497.291 0C488.734 0 481.788 6.97369 481.788 15.5634C481.788 24.1655 488.734 31.1268 497.291 31.1268C505.847 31.1268 512.794 24.1531 512.794 15.5634C512.794 6.96126 505.847 0 497.291 0ZM581.975 92.5972V96.5875C581.975 124.321 559.501 146.87 531.888 146.87C518.477 146.87 506.317 141.525 497.315 132.885C488.313 141.525 476.153 146.87 462.743 146.87C449.333 146.87 437.445 141.848 428.146 132.948C418.859 141.836 406.476 146.87 393.561 146.87C365.936 146.87 343.461 124.308 343.461 96.5875C343.461 68.8668 365.936 46.2924 393.561 46.2924H443.649V96.5875C443.649 107.154 452.218 115.743 462.743 115.743C473.268 115.743 481.688 107.266 481.8 96.7988C481.8 96.7242 481.8 96.6621 481.8 96.5875V46.2924H512.806V92.5972H512.843V96.5875C512.843 96.6621 512.843 96.7242 512.843 96.7988C512.955 107.266 521.449 115.743 531.912 115.743C542.376 115.743 550.994 107.154 550.994 96.5875V92.5972H582H581.975ZM374.48 96.5875C374.48 107.154 383.049 115.743 393.574 115.743C404.099 115.743 412.655 107.154 412.655 96.5875V77.4316H393.574C383.049 77.4316 374.48 86.0337 374.48 96.5875ZM113.318 145.552C112.513 140.332 111.659 135.111 110.829 129.89C108.439 114.774 106.062 99.6579 103.66 84.5545C102.025 74.2244 100.415 63.882 98.6942 53.5644C98.0008 49.3628 94.6698 46.367 90.435 45.7579C86.4478 45.186 82.3863 47.3614 80.5165 51.0658C80.1203 51.8614 79.7612 52.6694 79.3773 53.4774C74.3004 64.2922 69.1988 75.0946 64.1591 85.9343C63.0694 88.2837 61.4844 90.024 58.9831 90.7699C55.0455 91.9384 51.3555 90.1732 49.4485 86.1207C44.0745 74.6968 38.7623 63.2605 33.4254 51.8365C31.4071 47.523 27.5065 45.2109 23.1479 45.7454C18.6406 46.3048 15.4335 49.4001 14.6039 54.2481C13.477 60.824 12.4988 67.4372 11.4463 74.0255C8.93262 89.8997 6.40656 105.786 3.89289 121.673C2.64225 129.579 1.37922 137.497 0.140961 145.416C-0.230518 147.753 0.00475216 147.989 2.41936 147.989C5.46548 147.989 8.52399 147.989 11.5701 147.989C13.898 147.989 14.0962 147.715 13.5389 145.465C10.7157 134.042 19.656 123.04 31.308 123.6C42.44 124.134 50.1172 134.725 47.3559 145.751C46.9101 147.554 47.2073 147.977 49.0151 147.989C51.7393 148.014 54.4511 147.989 57.1753 147.989C59.8995 147.989 62.3884 147.989 65.0011 147.989C67.2671 147.989 67.5148 147.666 66.9452 145.441C64.1467 134.39 72.505 123.587 83.8598 123.587C95.2766 123.587 103.573 134.402 100.75 145.602C100.242 147.604 100.527 147.989 102.57 147.989C105.455 147.989 108.34 147.989 111.225 147.989C113.417 147.989 113.652 147.753 113.318 145.552ZM89.0605 141.115C89.0605 144.011 86.7945 146.323 83.9217 146.348C80.9994 146.373 78.721 144.148 78.6963 141.239C78.6715 138.181 80.8632 135.931 83.8846 135.943C86.7945 135.943 89.0605 138.206 89.0605 141.115ZM35.6791 141.202C35.6419 144.098 33.3511 146.361 30.4536 146.348C27.5808 146.348 25.2777 144.036 25.2777 141.152C25.2777 138.181 27.5808 135.919 30.5898 135.943C33.475 135.981 35.7162 138.28 35.6791 141.202Z" fill="currentColor"/>
</svg>
